<svg width="30" height="30" viewBox="0 0 30 30" fill="none" xmlns="http://www.w3.org/2000/svg">
<path d="M7.43125 19.5894H5.25563L2.8125 23.6087H26.6512L24.2081 19.5894H23.2469" stroke="white" stroke-width="0.625" stroke-linecap="round" stroke-linejoin="round"/>
<path d="M17.5552 12.5881L10.1595 10.3931L6.73828 21.9187H22.5539L24.6945 14.7074L19.7783 13.2481" stroke="white" stroke-width="0.625" stroke-linecap="round" stroke-linejoin="round"/>
<path d="M20.3249 9.50836C19.8568 10.4445 18.0187 11.9973 17.8588 12.237C17.6989 12.4768 16.3517 13.6527 17.2537 14.4063C18.1557 15.1599 19.5714 13.3445 20.028 13.0362C20.4847 12.728 22.7225 12.1229 23.202 11.7233C23.6815 11.3237 24.3437 10.9012 24.515 10.4788L23.5788 7.51005C23.5788 7.51005 19.5485 7.4413 19.0119 7.51005C18.4753 7.5788 16.222 10.594 16.5573 11.4946C16.9569 12.5679 18.342 11.7487 18.342 11.7487" stroke="white" stroke-width="0.625" stroke-linecap="round" stroke-linejoin="round"/>
<path d="M23.5781 7.51049L25.6906 6.39111L27.1856 10.393L24.5144 10.4786" stroke="white" stroke-width="0.625" stroke-linecap="round" stroke-linejoin="round"/>
</svg>
