<svg width="467" height="467" viewBox="0 0 467 467" fill="none" xmlns="http://www.w3.org/2000/svg">
<g clip-path="url(#clip0_2441_53)">
<g filter="url(#filter0_f_2441_53)">
<ellipse cx="225.725" cy="213.526" rx="218.748" ry="108.567" transform="rotate(-34.5739 225.725 213.526)" fill="url(#paint0_linear_2441_53)"/>
<path d="M164.683 124.957C214.322 90.7467 266.104 69.7907 309.665 63.5304C353.294 57.2602 388.338 65.7585 405.017 89.9604C421.697 114.163 417.165 149.937 395.775 188.476C374.419 226.956 336.404 267.887 286.765 302.097C237.127 336.306 185.345 357.262 141.785 363.522C98.1556 369.793 63.1112 361.294 46.4315 337.092C29.7521 312.889 34.2845 277.116 55.674 238.576C77.0301 200.097 115.045 159.167 164.683 124.957Z" stroke="url(#paint1_linear_2441_53)" stroke-width="2"/>
</g>
<g filter="url(#filter1_f_2441_53)">
<ellipse cx="241.807" cy="222.251" rx="157.984" ry="89.3852" transform="rotate(-34.5739 241.807 222.251)" fill="black"/>
</g>
</g>
<defs>
<filter id="filter0_f_2441_53" x="-14.6885" y="10.5437" width="480.826" height="405.965" filterUnits="userSpaceOnUse" color-interpolation-filters="sRGB">
<feFlood flood-opacity="0" result="BackgroundImageFix"/>
<feBlend mode="normal" in="SourceGraphic" in2="BackgroundImageFix" result="shape"/>
<feGaussianBlur stdDeviation="25" result="effect1_foregroundBlur_2441_53"/>
</filter>
<filter id="filter1_f_2441_53" x="77.0465" y="81.1551" width="329.521" height="282.191" filterUnits="userSpaceOnUse" color-interpolation-filters="sRGB">
<feFlood flood-opacity="0" result="BackgroundImageFix"/>
<feBlend mode="normal" in="SourceGraphic" in2="BackgroundImageFix" result="shape"/>
<feGaussianBlur stdDeviation="12.55" result="effect1_foregroundBlur_2441_53"/>
</filter>
<linearGradient id="paint0_linear_2441_53" x1="-433.939" y1="65.4807" x2="450.148" y2="117.995" gradientUnits="userSpaceOnUse">
<stop stop-color="#7AEFFF"/>
<stop offset="0.18" stop-color="#7CFF7A"/>
<stop offset="0.395" stop-color="#FEEC90"/>
<stop offset="0.595" stop-color="#FFC978"/>
<stop offset="0.92" stop-color="#E478FF"/>
</linearGradient>
<linearGradient id="paint1_linear_2441_53" x1="-401.45" y1="465.965" x2="356.302" y2="7.51343" gradientUnits="userSpaceOnUse">
<stop stop-color="#7AEFFF"/>
<stop offset="0.18" stop-color="#7CFF7A"/>
<stop offset="0.395" stop-color="#FEEC90"/>
<stop offset="0.595" stop-color="#FFC978"/>
<stop offset="0.92" stop-color="#E478FF"/>
</linearGradient>
<clipPath id="clip0_2441_53">
<rect width="467" height="467" fill="white"/>
</clipPath>
</defs>
</svg>
