<svg width="1987" height="1241" viewBox="0 0 1987 1241" fill="none" xmlns="http://www.w3.org/2000/svg">
<g clip-path="url(#clip0_2441_1105)">
<g filter="url(#filter0_f_2441_1105)">
<path fill-rule="evenodd" clip-rule="evenodd" d="M644.344 1170.5C296.026 1100.1 32.4035 706.763 274.844 117.5L359.844 -29H-8.15625L30.8438 1341L1868.5 1359C1585.86 1061.74 1455.11 1201.55 1233.84 1170.5C1182.67 1163.32 695.921 1180.92 644.344 1170.5Z" fill="url(#paint0_linear_2441_1105)" fill-opacity="0.38"/>
</g>
<g filter="url(#filter1_f_2441_1105)">
<path fill-rule="evenodd" clip-rule="evenodd" d="M1446.95 97.8457C1776.96 172.758 1881.52 594.904 1651.83 1221.95L1571.3 1377.85H1919.95L1883 -80.0001L141.95 -99.1543C409.729 217.162 536.319 64.803 745.95 97.8457C794.43 105.487 1398.08 86.753 1446.95 97.8457Z" fill="url(#paint1_linear_2441_1105)" fill-opacity="0.38"/>
</g>
</g>
<defs>
<filter id="filter0_f_2441_1105" x="-108.156" y="-129" width="2076.66" height="1588" filterUnits="userSpaceOnUse" color-interpolation-filters="sRGB">
<feFlood flood-opacity="0" result="BackgroundImageFix"/>
<feBlend mode="normal" in="SourceGraphic" in2="BackgroundImageFix" result="shape"/>
<feGaussianBlur stdDeviation="50" result="effect1_foregroundBlur_2441_1105"/>
</filter>
<filter id="filter1_f_2441_1105" x="41.9502" y="-199.154" width="1978" height="1677" filterUnits="userSpaceOnUse" color-interpolation-filters="sRGB">
<feFlood flood-opacity="0" result="BackgroundImageFix"/>
<feBlend mode="normal" in="SourceGraphic" in2="BackgroundImageFix" result="shape"/>
<feGaussianBlur stdDeviation="50" result="effect1_foregroundBlur_2441_1105"/>
</filter>
<linearGradient id="paint0_linear_2441_1105" x1="-8.15625" y1="665" x2="1868.5" y2="665" gradientUnits="userSpaceOnUse">
<stop stop-color="#7AEFFF"/>
<stop offset="0.18" stop-color="#7CFF7A"/>
<stop offset="0.395" stop-color="#FEEC90"/>
<stop offset="0.595" stop-color="#FFC978"/>
<stop offset="0.92" stop-color="#E478FF"/>
</linearGradient>
<linearGradient id="paint1_linear_2441_1105" x1="1919.95" y1="639.346" x2="141.95" y2="639.346" gradientUnits="userSpaceOnUse">
<stop stop-color="#7AEFFF"/>
<stop offset="0.18" stop-color="#7CFF7A"/>
<stop offset="0.395" stop-color="#FEEC90"/>
<stop offset="0.595" stop-color="#FFC978"/>
<stop offset="0.92" stop-color="#E478FF"/>
</linearGradient>
<clipPath id="clip0_2441_1105">
<rect width="1987" height="1241" fill="white"/>
</clipPath>
</defs>
</svg>
