<svg xmlns="http://www.w3.org/2000/svg" viewBox="50 0 590 187.5">
  <g fill="#CCFF00">
    <rect x="100" y="0" width="200" height="150"/>
    <rect x="193.75" y="0" width="150" height="75"/>
    <rect x="437.5" y="0" width="200" height="75"/>
  </g>
  <g fill="#000">
    <polygon points="75 25 156.3 25 156.3 43.8 100 43.8 100 87.5 75 87.5 75 25"/>
    <polygon points="100 87.5 150 87.5 150 106.3 100 106.3 100 87.5"/>
    <polygon points="50 112.5 75 112.5 75 162.5 50 162.5 50 112.5"/>
    <path d="M187.5,25h19.7v5.9h-12.7v7.2h10.8v5.9h-10.8v12.2h-7.1V25z"/>
    <path d="M237.7,56.3l-7.1-12.5c3.3-1.5,5.6-4.4,5.6-9c0-7.4-5.4-9.7-12.1-9.7h-11.3v31.3h7.1V45h3.9l6,11.2H237.7z M219.9,30.6 h3.6c3.7,0,5.7,1,5.7,4.1c0,3.1-2,4.7-5.7,4.7h-3.6V30.6z"/>
    <path d="M242.5,25h19.6v5.9h-12.5v6.3h10.7v5.9h-10.7v7.2h13v5.9h-20.1V25z"/>
    <path d="M269,25h7.1v31.3H269V25z"/>
    <path d="M283.2,25h19.6v5.9h-12.5v6.3h10.7v5.9h-10.7v7.2h13v5.9h-20.1V25z"/>
    <path d="M427.8,72.7c2,0,3.4-1.4,3.4-3.4c0-1.9-1.4-3.4-3.4-3.4c-2,0-3.4,1.4-3.4,3.4C424.4,71.3,425.8,72.7,427.8,72.7z"/>
    <path d="M417.2,72.7c2,0,3.4-1.4,3.4-3.4c0-1.9-1.4-3.4-3.4-3.4c-2,0-3.4,1.4-3.4,3.4C413.8,71.3,415.2,72.7,417.2,72.7z"/>
    <path d="M187.5,91.8V75h7.1v17.5c0,6.1,1.9,8.2,5.4,8.2c3.5,0,5.5-2.1,5.5-8.2V75h6.8v16.8c0,10.5-4.3,15.1-12.3,15.1 C191.9,106.9,187.5,102.3,187.5,91.8z"/>
    <path d="M218.8,75h7.2l8.2,15.5l3.1,6.9h0.2c-0.3-3.3-0.9-7.7-0.9-11.4V75h6.7v31.3h-7.2L228,90.7l-3.1-6.8h-0.2 c0.3,3.4,0.9,7.6,0.9,11.3v11.1h-6.7V75z"/>
    <path d="M250.4,75h7.1v31.3h-7.1V75z"/>
    <path d="M261,75h7.5l3.8,14.6c0.9,3.4,1.6,6.6,2.5,10h0.2c0.9-3.4,1.6-6.6,2.5-10l3.7-14.6h7.2l-9.4,31.3h-8.5L261,75z"/>
    <path d="M291.9,75h19.6V81h-12.5v6.3h10.7v5.9h-10.7v7.2h13v5.9h-20.1V75z"/>
    <path d="M342.8,106.3l-7.1-12.5c3.3-1.5,5.6-4.4,5.6-9c0-7.4-5.4-9.7-12.1-9.7H318v31.3h7.1V95.1h3.9l6,11.2H342.8z M325.1,80.7 h3.6c3.7,0,5.7,1,5.7,4.1c0,3.1-2,4.7-5.7,4.7h-3.6V80.7z"/>
    <path d="M344.9,102.4l4.1-4.8c2.2,1.9,5.1,3.3,7.7,3.3c2.9,0,4.4-1.2,4.4-3c0-2-1.8-2.6-4.5-3.7l-4.1-1.7c-3.2-1.3-6.3-4-6.3-8.5 c0-5.2,4.6-9.3,11.1-9.3c3.6,0,7.4,1.4,10.1,4.1l-3.6,4.5c-2.1-1.6-4-2.4-6.5-2.4c-2.4,0-4,1-4,2.8c0,1.9,2,2.6,4.8,3.7l4,1.6 c3.8,1.5,6.2,4.1,6.2,8.5c0,5.2-4.3,9.7-11.8,9.7C352.4,106.9,348.1,105.3,344.9,102.4z"/>
    <path d="M373.9,75h7.1v31.3h-7.1V75z"/>
    <path d="M394.4,81h-8.6V75H410V81h-8.6v25.3h-7.1V81z"/>
    <path d="M429.2,106.3h7.5L426.9,75h-8.5l-9.8,31.3h7.2l1.9-7.4h9.5L429.2,106.3z M419.2,93.4l0.8-2.9c0.9-3.1,1.7-6.8,2.5-10.1 h0.2c0.8,3.3,1.7,7,2.5,10.1l0.7,2.9H419.2z"/>
    <path d="M443.6,81h-8.6V75h24.3V81h-8.6v25.3h-7.1V81z"/>
    <path d="M187.5,131.2h8.9c6.3,0,10.6,2.2,10.6,7.6c0,3.2-1.7,5.8-4.7,6.8v0.2c3.9,0.7,6.5,3.2,6.5,7.5c0,6.1-4.7,9.1-11.7,9.1 h-9.6V131.2z M195.7,144.7c5.8,0,8.1-2.1,8.1-5.5c0-3.9-2.7-5.4-7.9-5.4h-5.1v10.9H195.7z M196.5,159.9c5.7,0,9.1-2.1,9.1-6.6 c0-4.1-3.3-6-9.1-6h-5.8v12.6H196.5z"/>
    <path d="M215.5,131.2h17.6v2.8h-14.4v10.6h12.1v2.8h-12.1v12.3h14.9v2.8h-18.1V131.2z"/>
    <path d="M261.5,162.5l-8.2-14c4.5-0.9,7.4-3.8,7.4-8.7c0-6.3-4.4-8.6-10.7-8.6h-9.4v31.3h3.3v-13.7h6l7.9,13.7H261.5z M243.8,133.9h5.6c5.1,0,8,1.6,8,5.9c0,4.3-2.8,6.3-8,6.3h-5.6V133.9z"/>
    <path d="M267.4,131.2h3.3v28.5h13.9v2.8h-17.2V131.2z"/>
    <path d="M290.3,131.2h3.3v31.3h-3.3V131.2z"/>
    <path d="M302.6,131.2h3.4l12,20.6l3.4,6.4h0.2c-0.2-3.1-0.4-6.4-0.4-9.6v-17.4h3.1v31.3H321l-12-20.6l-3.4-6.4h-0.2 c0.2,3.1,0.4,6.2,0.4,9.4v17.6h-3.1V131.2z"/>
  </g>
</svg>
